<?xml version="1.0" standalone="no"?>
<!DOCTYPE svg PUBLIC "-//W3C//DTD SVG 20010904//EN"
 "http://www.w3.org/TR/2001/REC-SVG-20010904/DTD/svg10.dtd">
<svg version="1.0" xmlns="http://www.w3.org/2000/svg"
 width="1536.000000pt" height="501.000000pt" viewBox="0 0 1536.000000 501.000000"
 preserveAspectRatio="xMidYMid meet">

<g transform="translate(0.000000,501.000000) scale(0.100000,-0.100000)"
fill="#000000" stroke="none">
<path d="M1517 4421 c-106 -35 -279 -127 -337 -179 -69 -62 -112 -137 -112
-197 -1 -56 19 -80 74 -89 56 -9 115 -44 137 -81 37 -60 45 -138 46 -430 0
-263 -1 -286 -24 -374 -30 -118 -52 -146 -113 -145 -62 2 -149 38 -200 84 -82
72 -117 190 -118 395 0 184 -32 300 -89 329 -160 83 -329 -156 -402 -569 -21
-116 -24 -162 -24 -420 0 -305 7 -384 51 -596 47 -226 129 -428 211 -519 48
-53 71 -65 109 -56 58 15 74 99 83 431 9 299 16 338 85 428 62 81 216 135 307
108 80 -24 78 -66 -15 -300 -253 -632 -538 -1697 -478 -1787 14 -21 53 -35 82
-29 57 13 122 109 191 282 69 177 146 274 248 315 52 21 73 23 328 26 l272 3
16 -31 c9 -18 37 -84 62 -148 83 -218 174 -361 249 -397 37 -18 38 -17 56 5
27 33 23 124 -12 297 -83 399 -262 996 -411 1366 -67 167 -93 265 -83 311 21
97 104 122 220 67 169 -80 204 -170 204 -531 1 -233 19 -344 65 -394 35 -38
67 -34 121 16 91 84 188 337 233 608 82 497 42 1032 -98 1325 -68 142 -133
205 -213 205 -38 0 -54 -6 -81 -30 -52 -45 -67 -114 -77 -349 -9 -197 -17
-246 -51 -312 -42 -84 -182 -167 -259 -155 -56 9 -100 61 -122 148 -56 220
-42 656 27 805 23 52 93 128 174 192 49 39 73 86 73 147 0 81 -54 142 -173
199 -95 45 -155 51 -232 26z m1 -2416 c55 -46 126 -230 153 -394 26 -166 -30
-231 -201 -231 -123 0 -191 38 -206 116 -16 86 54 368 117 465 45 71 88 85
137 44z"/>
<path d="M4093 1208 l-53 -10 0 -134 0 -135 -22 8 c-40 14 -141 8 -178 -11
-84 -43 -130 -115 -138 -213 -7 -86 12 -147 62 -199 68 -70 154 -81 232 -28
l38 26 17 -21 c10 -12 19 -26 21 -31 2 -6 23 -4 53 4 l50 12 3 372 c2 350 1
372 -15 371 -10 -1 -42 -6 -70 -11z m-55 -477 c3 -161 -5 -181 -69 -181 -89 0
-137 66 -126 174 11 105 53 148 142 143 l50 -2 3 -134z"/>
<path d="M6402 1150 c-29 -12 -44 -52 -32 -85 10 -26 45 -45 81 -45 26 0 69
44 69 70 0 12 -11 32 -25 45 -25 26 -54 30 -93 15z"/>
<path d="M9512 1148 c-27 -13 -38 -51 -26 -87 14 -39 74 -52 112 -24 75 55 0
152 -86 111z"/>
<path d="M12151 1126 l-43 -11 -125 -285 c-158 -362 -157 -359 -150 -367 4 -3
26 -7 49 -7 41 -1 44 1 65 42 12 24 26 56 32 73 l10 30 137 -3 136 -3 25 -67
c28 -75 42 -85 101 -68 54 14 68 32 54 73 -11 35 -241 600 -245 602 -1 1 -22
-3 -46 -9z m28 -314 c24 -63 40 -116 37 -120 -11 -11 -186 -15 -186 -4 0 5 12
41 26 78 14 38 35 93 46 122 11 30 23 50 27 45 4 -4 27 -59 50 -121z"/>
<path d="M2900 795 l0 -325 73 0 73 0 0 325 0 325 -73 0 -73 0 0 -325z"/>
<path d="M7890 795 l0 -325 70 0 70 0 0 140 0 140 140 0 140 0 0 -140 0 -140
70 0 70 0 0 325 0 325 -70 0 -70 0 0 -134 0 -133 -37 -7 c-21 -3 -84 -6 -140
-6 l-103 0 0 140 0 140 -70 0 -70 0 0 -325z"/>
<path d="M9873 1103 c-17 -3 -26 -15 -34 -46 -22 -84 -59 -121 -129 -129 -20
-2 -26 -9 -28 -35 l-3 -33 50 0 51 0 0 -164 c0 -160 1 -165 25 -194 46 -55
151 -65 224 -21 34 20 55 58 40 73 -5 6 -24 4 -48 -4 -50 -16 -89 -7 -101 26
-11 29 -13 119 -3 217 l6 67 82 0 83 0 4 35 4 35 -88 0 -88 0 0 90 c0 66 -3
90 -12 89 -7 -1 -23 -4 -35 -6z"/>
<path d="M11085 989 c-11 -7 -34 -25 -51 -41 l-31 -29 -52 17 c-110 36 -227
-3 -270 -89 -21 -43 -22 -53 -12 -87 6 -21 27 -52 47 -70 l37 -32 -36 -36
c-61 -63 -67 -112 -19 -142 12 -8 14 -13 4 -17 -32 -13 -72 -57 -72 -78 0 -39
11 -55 54 -78 35 -19 57 -22 146 -22 101 0 109 2 175 35 78 39 108 77 108 139
0 89 -58 123 -221 129 -84 3 -115 8 -119 18 -10 27 17 44 71 44 106 0 185 46
207 120 11 37 9 50 -16 112 -6 15 1 17 51 20 52 3 60 6 74 30 27 49 -23 86
-75 57z m-180 -124 c50 -50 20 -155 -45 -155 -65 0 -95 105 -45 155 13 14 34
25 45 25 11 0 32 -11 45 -25z m45 -408 c37 -19 33 -56 -9 -84 -47 -32 -156
-33 -189 -3 -26 24 -28 47 -6 78 14 20 24 22 97 22 46 0 93 -6 107 -13z"/>
<path d="M12930 984 c-14 -9 -37 -28 -51 -41 -25 -23 -27 -23 -68 -8 -89 31
-193 10 -252 -51 -31 -32 -34 -40 -34 -95 0 -55 3 -63 31 -89 17 -15 38 -30
45 -32 9 -3 2 -15 -22 -36 -62 -55 -77 -125 -31 -148 l23 -11 -28 -18 c-68
-43 -80 -89 -34 -128 63 -53 217 -61 333 -17 146 54 172 196 49 260 -13 7 -76
15 -140 19 -115 6 -116 6 -116 31 0 24 3 25 75 30 154 11 240 114 185 220
l-16 30 60 0 c67 0 85 16 79 68 -2 22 -9 28 -33 30 -16 1 -41 -5 -55 -14z
m-186 -106 c52 -23 52 -136 1 -160 -62 -28 -118 38 -96 112 6 21 21 42 33 48
30 14 33 14 62 0z m54 -419 c56 -19 49 -69 -13 -95 -46 -19 -145 -18 -173 2
-24 16 -29 53 -12 85 9 16 22 19 89 19 43 0 92 -5 109 -11z"/>
<path d="M3222 937 l-44 -12 -1 -228 -2 -227 70 0 70 0 0 171 0 171 28 24 c32
28 73 31 105 8 21 -15 22 -20 22 -195 l0 -179 73 0 72 0 -5 198 c-4 169 -8
202 -23 226 -22 33 -73 56 -124 56 -39 0 -115 -30 -127 -49 -12 -18 -25 -12
-41 19 -9 17 -19 30 -23 29 -4 0 -27 -6 -50 -12z"/>
<path d="M4434 934 c-101 -36 -164 -128 -164 -239 0 -149 89 -239 235 -239
111 0 198 56 240 157 21 50 19 152 -4 202 -50 111 -184 163 -307 119z m144
-97 c62 -57 51 -250 -16 -286 -52 -28 -114 -3 -138 55 -18 43 -18 145 0 187
31 74 99 93 154 44z"/>
<path d="M4893 937 l-43 -10 0 -228 0 -229 70 0 70 0 0 160 c0 122 4 168 15
189 22 44 91 55 125 21 18 -18 20 -33 20 -195 l0 -175 70 0 70 0 0 183 c0 155
-3 188 -19 223 -35 77 -128 96 -226 44 l-56 -30 -17 30 c-18 32 -18 32 -79 17z"/>
<path d="M5542 932 c-104 -37 -165 -127 -165 -241 0 -78 23 -132 77 -178 47
-42 98 -58 181 -57 98 1 171 40 190 102 10 33 -17 38 -70 12 -61 -30 -143 -25
-181 11 -33 31 -54 71 -54 104 l0 25 133 0 c162 0 177 7 177 79 0 57 -28 105
-78 134 -48 28 -144 32 -210 9z m148 -100 c11 -13 20 -30 20 -37 0 -13 -65
-25 -140 -25 -43 0 -48 2 -43 20 3 11 16 31 30 44 41 41 100 40 133 -2z"/>
<path d="M6021 935 c-98 -31 -147 -125 -106 -205 18 -35 67 -62 150 -84 54
-14 85 -35 85 -58 0 -4 -9 -17 -20 -28 -28 -28 -108 -26 -182 4 l-58 24 0 -23
c0 -61 12 -84 49 -96 55 -19 168 -17 222 4 72 28 102 65 107 137 4 57 3 61
-30 94 -21 21 -52 39 -79 45 -95 25 -129 41 -129 65 0 33 19 46 68 46 33 0 52
-7 74 -26 54 -44 113 -17 93 43 -21 61 -141 90 -244 58z"/>
<path d="M6423 937 l-63 -10 0 -228 0 -229 73 0 72 0 0 240 c0 154 -4 240 -10
239 -5 -1 -38 -6 -72 -12z"/>
<path d="M6697 936 c-21 -8 -48 -22 -59 -33 -69 -62 -12 -129 59 -69 30 26 41
29 86 27 38 -1 87 -51 87 -88 0 -27 -4 -30 -92 -56 -73 -23 -99 -36 -130 -66
-33 -33 -38 -45 -38 -83 0 -107 114 -151 214 -83 20 14 41 25 46 25 5 0 22
-13 38 -30 33 -32 55 -36 115 -19 26 7 37 16 37 29 0 10 3 26 7 35 5 14 2 16
-16 10 -13 -4 -28 -1 -37 6 -13 11 -15 32 -9 138 8 138 2 167 -43 214 -49 51
-181 72 -265 43z m173 -288 c0 -52 -20 -98 -46 -104 -59 -15 -106 45 -68 87
17 19 61 36 97 38 11 1 17 -6 17 -21z"/>
<path d="M7183 938 l-43 -9 0 -230 0 -229 70 0 70 0 0 170 c0 168 0 171 25
195 29 30 74 32 106 6 24 -19 24 -22 24 -195 l-1 -176 71 0 71 0 -4 193 c-4
215 -10 238 -72 270 -49 26 -127 19 -179 -16 -22 -15 -43 -27 -46 -27 -2 0
-11 14 -20 30 -9 17 -19 30 -23 29 -4 -1 -26 -5 -49 -11z"/>
<path d="M8716 934 c-62 -19 -137 -92 -154 -150 -29 -99 -7 -209 54 -266 86
-80 257 -88 337 -15 72 65 54 107 -28 67 -61 -30 -143 -25 -181 11 -29 26 -54
77 -54 109 0 19 6 20 129 20 71 0 142 5 157 10 25 10 26 13 22 75 -3 51 -9 70
-28 91 -56 60 -153 79 -254 48z m138 -89 c17 -17 30 -54 22 -62 -3 -3 -46 -8
-97 -11 l-91 -5 12 24 c26 51 52 69 96 69 25 0 49 -6 58 -15z"/>
<path d="M9140 938 l-45 -9 0 -230 0 -229 70 0 70 0 -3 161 c-3 111 0 165 8
173 6 6 41 13 78 16 l67 5 3 64 3 64 -42 -6 c-31 -4 -52 -16 -83 -46 -23 -23
-45 -41 -48 -41 -4 0 -8 19 -10 42 -3 47 -7 49 -68 36z"/>
<path d="M9535 938 l-60 -10 0 -229 0 -229 70 0 70 0 0 240 c0 154 -4 240 -10
239 -5 -1 -37 -6 -70 -11z"/>
<path d="M10237 936 c-21 -8 -48 -22 -59 -33 -69 -62 -12 -129 59 -69 30 26
41 29 86 27 40 -1 87 -51 87 -90 0 -25 -5 -32 -27 -37 -92 -20 -160 -50 -195
-84 -33 -32 -38 -44 -38 -82 0 -107 114 -151 214 -83 20 14 41 25 46 25 5 0
22 -13 38 -30 33 -32 55 -36 115 -19 26 7 37 16 37 29 0 10 3 26 7 35 5 14 2
16 -16 10 -13 -4 -28 -1 -37 6 -13 11 -14 31 -9 129 9 138 3 170 -37 216 -51
57 -181 81 -271 50z m173 -288 c0 -52 -20 -98 -46 -104 -59 -15 -106 45 -68
87 17 19 61 36 97 38 11 1 17 -6 17 -21z"/>
<path d="M11340 941 c-85 -28 -151 -93 -174 -172 -20 -65 -20 -92 -1 -155 30
-100 119 -158 245 -158 110 0 190 47 190 111 0 29 -18 29 -67 3 -50 -27 -125
-26 -168 0 -36 22 -65 73 -65 114 l0 26 133 0 c162 0 177 7 177 79 0 57 -28
105 -78 134 -37 22 -149 32 -192 18z m123 -100 c8 -9 18 -25 21 -37 6 -19 1
-22 -40 -28 -64 -8 -144 -8 -144 2 0 4 9 21 20 39 30 49 109 63 143 24z"/>
<path d="M13180 935 c-104 -33 -170 -128 -170 -245 0 -78 23 -134 71 -174 98
-83 262 -86 341 -6 62 62 44 99 -31 61 -76 -39 -175 -20 -215 41 -8 13 -18 40
-21 60 l-7 36 146 4 c102 2 149 7 158 16 7 7 13 34 12 61 -1 61 -32 113 -82
137 -48 23 -145 28 -202 9z m140 -95 c11 -11 20 -28 20 -39 0 -21 -40 -31
-127 -31 -63 0 -69 16 -24 61 37 36 99 41 131 9z"/>
<path d="M13602 937 l-43 -12 -2 -228 -2 -227 72 0 71 0 -1 171 -2 171 28 24
c34 29 76 31 108 5 24 -19 24 -22 22 -195 l-1 -176 71 0 72 0 -5 198 c-4 169
-8 202 -23 226 -22 33 -73 56 -124 56 -39 0 -115 -30 -127 -49 -12 -18 -25
-12 -41 19 -9 17 -19 30 -23 29 -4 0 -26 -6 -50 -12z"/>
<path d="M14252 935 c-59 -18 -106 -57 -139 -113 -25 -42 -28 -57 -28 -134 0
-80 2 -90 30 -130 56 -80 178 -121 290 -98 59 12 75 30 75 85 0 22 -2 23 -32
14 -55 -15 -120 -11 -156 11 -61 37 -88 137 -59 219 26 73 113 97 166 47 51
-49 117 -21 96 41 -21 61 -141 90 -243 58z"/>
<path d="M14572 936 l-62 -11 51 -85 c76 -125 122 -226 127 -279 5 -51 -13
-95 -70 -179 -35 -51 -34 -83 5 -96 33 -12 56 -1 74 35 51 99 293 604 293 611
0 4 -22 8 -48 8 l-48 0 -54 -121 c-62 -142 -53 -143 -132 24 -29 59 -56 106
-62 106 -6 -1 -39 -7 -74 -13z"/>
</g>
</svg>
